<svg width="27" height="22" viewBox="0 0 27 22" fill="none" xmlns="http://www.w3.org/2000/svg">
  <path d="M21.6 12.375V9.625H27V12.375H21.6ZM23.22 22L18.9 18.7L20.52 16.5L24.84 19.8L23.22 22ZM20.52 5.5L18.9 3.3L23.22 0L24.84 2.2L20.52 5.5ZM4.05 20.625V15.125H2.7C1.9575 15.125 1.32188 14.8557 0.793125 14.3172C0.264375 13.7786 0 13.1313 0 12.375V9.625C0 8.86875 0.264375 8.22135 0.793125 7.68281C1.32188 7.14427 1.9575 6.875 2.7 6.875H8.1L14.85 2.75V19.25L8.1 15.125H6.75V20.625H4.05ZM12.15 14.3687V7.63125L8.8425 9.625H2.7V12.375H8.8425L12.15 14.3687ZM16.2 15.6063V6.39375C16.8075 6.94375 17.2969 7.61406 17.6681 8.40469C18.0394 9.19531 18.225 10.0604 18.225 11C18.225 11.9396 18.0394 12.8047 17.6681 13.5953C17.2969 14.3859 16.8075 15.0563 16.2 15.6063Z" fill="currentColor"/>
</svg>