<svg width="21" height="21" viewBox="0 0 21 21" fill="none" xmlns="http://www.w3.org/2000/svg">
<path d="M9.5 13.0001H5C3.93913 13.0001 2.92172 13.4216 2.17157 14.1717C1.42143 14.9219 1 15.9393 1 17.0001V19.0001M19.378 14.6261C19.7764 14.2278 20.0001 13.6875 20.0001 13.1241C20.0001 12.5608 19.7764 12.0205 19.378 11.6221C18.9796 11.2238 18.4394 11 17.876 11C17.3126 11 16.7724 11.2238 16.374 11.6221L12.364 15.6341C12.1262 15.8718 11.9522 16.1655 11.858 16.4881L11.021 19.3581C10.9959 19.4442 10.9944 19.5354 11.0166 19.6222C11.0389 19.7091 11.0841 19.7883 11.1474 19.8517C11.2108 19.9151 11.2901 19.9603 11.3769 19.9825C11.4637 20.0048 11.555 20.0032 11.641 19.9781L14.511 19.1411C14.8337 19.0469 15.1274 18.8729 15.365 18.6351L19.378 14.6261Z" stroke="currentColor" stroke-width="2" stroke-linecap="round" stroke-linejoin="round"/>
<path d="M8 9C10.2091 9 12 7.20914 12 5C12 2.79086 10.2091 1 8 1C5.79086 1 4 2.79086 4 5C4 7.20914 5.79086 9 8 9Z" stroke="currentColor" stroke-width="2" stroke-linecap="round" stroke-linejoin="round"/>
</svg>
