<svg width="15" height="16" viewBox="0 0 15 16" fill="none" xmlns="http://www.w3.org/2000/svg">
<path d="M7.5 7.75C8.49456 7.75 9.44839 7.35491 10.1517 6.65165C10.8549 5.94839 11.25 4.99456 11.25 4C11.25 3.00544 10.8549 2.05161 10.1517 1.34835C9.44839 0.645088 8.49456 0.25 7.5 0.25C6.50544 0.25 5.55161 0.645088 4.84835 1.34835C4.14509 2.05161 3.75 3.00544 3.75 4C3.75 4.99456 4.14509 5.94839 4.84835 6.65165C5.55161 7.35491 6.50544 7.75 7.5 7.75ZM10 4C10 4.66304 9.73661 5.29893 9.26777 5.76777C8.79893 6.23661 8.16304 6.5 7.5 6.5C6.83696 6.5 6.20107 6.23661 5.73223 5.76777C5.26339 5.29893 5 4.66304 5 4C5 3.33696 5.26339 2.70107 5.73223 2.23223C6.20107 1.76339 6.83696 1.5 7.5 1.5C8.16304 1.5 8.79893 1.76339 9.26777 2.23223C9.73661 2.70107 10 3.33696 10 4ZM15 14C15 15.25 13.75 15.25 13.75 15.25H1.25C1.25 15.25 0 15.25 0 14C0 12.75 1.25 9 7.5 9C13.75 9 15 12.75 15 14ZM13.75 13.995C13.7487 13.6875 13.5575 12.7625 12.71 11.915C11.895 11.1 10.3612 10.25 7.5 10.25C4.63875 10.25 3.105 11.1 2.29 11.915C1.4425 12.7625 1.2525 13.6875 1.25 13.995H13.75Z" fill="#71717B"/>
</svg>
