<svg width="318" height="124" viewBox="0 0 318 124" fill="none" xmlns="http://www.w3.org/2000/svg">
<mask id="mask0_1456_4394" style="mask-type:luminance" maskUnits="userSpaceOnUse" x="0" y="0" width="318" height="124">
<path d="M318 0H0V123.75H318V0Z" fill="white"/>
</mask>
<g mask="url(#mask0_1456_4394)">
<path d="M54.2273 29.3906C54.2273 22.2153 51.3707 15.3338 46.2859 10.2601C41.201 5.18635 34.3046 2.33594 27.1137 2.33594C19.9227 2.33594 13.0262 5.18632 7.94141 10.2601C2.85661 15.3338 1.08581e-06 22.2153 0 29.3906H16.7305C16.7305 26.6428 17.8244 24.0075 19.7717 22.0645C21.7189 20.1216 24.3599 19.03 27.1137 19.03C29.8675 19.03 32.5085 20.1216 34.4556 22.0645C36.403 24.0075 37.497 26.6428 37.497 29.3906H54.2273Z" fill="#0095FF"/>
<path d="M317.387 1.3225C307.377 -0.173435 297.217 -0.401347 287.149 0.644176L297.576 100.605C299.205 100.436 300.849 100.473 302.47 100.715L317.387 1.3225Z" fill="#0095FF"/>
<path d="M299.254 122.247C304.431 122.247 308.627 118.06 308.627 112.895C308.627 107.73 304.431 103.543 299.254 103.543C294.078 103.543 289.882 107.73 289.882 112.895C289.882 118.06 294.078 122.247 299.254 122.247Z" fill="#0095FF"/>
<path d="M200.507 75.4844C207.876 75.4844 214.942 72.5635 220.153 67.3648C225.363 62.1657 228.29 55.1142 228.29 47.7618C228.29 40.4092 225.363 33.358 220.153 28.1588C214.942 22.9598 207.876 20.0391 200.507 20.0391V33.3891C204.327 33.3891 207.991 34.9032 210.692 37.5988C213.393 40.2943 214.911 43.95 214.911 47.7618C214.911 51.5736 213.393 55.2293 210.692 57.9249C207.991 60.6201 204.327 62.1343 200.507 62.1343V75.4844Z" fill="#0095FF"/>
<path d="M16.7369 29.3916H0V78.1567H16.7369V29.3916Z" fill="#0095FF"/>
<path d="M16.7369 29.3916H0V78.1567H16.7369V29.3916Z" fill="#0095FF"/>
<path d="M0 95.1895C0 102.365 2.85661 109.246 7.94142 114.32C13.0262 119.394 19.9227 122.244 27.1137 122.244C34.3046 122.244 41.2011 119.394 46.2859 114.32C51.3707 109.246 54.2273 102.365 54.2273 95.1895H37.4287C37.4287 97.9189 36.3417 100.537 34.4073 102.467C32.473 104.397 29.8494 105.482 27.1137 105.482C24.378 105.482 21.7544 104.397 19.82 102.467C17.8855 100.537 16.7988 97.9189 16.7988 95.1895H0Z" fill="#0095FF"/>
<path d="M37.4907 95.5234H54.2275L54.2275 45.4221H37.4907L37.4907 95.5234Z" fill="#0095FF"/>
<path d="M2.00879 53.4392L2.00879 70.1396H52.2194V53.4392H2.00879Z" fill="#0095FF"/>
<path d="M60.9219 62.789V76.8174H102.429V62.789H60.9219Z" fill="#0095FF"/>
<path d="M172.725 20.041V33.4014H200.843V20.041H172.725Z" fill="#0095FF"/>
<path d="M174.063 62.124V75.4844H202.181V62.124H174.063Z" fill="#0095FF"/>
<path d="M249.044 20.7051H234.985V122.244H249.044V20.7051Z" fill="#0095FF"/>
<path d="M277.162 34.7334V20.7051L234.985 20.7051V34.7334H277.162Z" fill="#0095FF"/>
<path d="M277.162 122.244V108.216H234.985V122.244H277.162Z" fill="#0095FF"/>
<path d="M277.162 76.8204V62.792H234.985V76.8204H277.162Z" fill="#0095FF"/>
<path d="M74.9808 19.3701H60.9219V120.909H74.9808V19.3701Z" fill="#0095FF"/>
<path d="M102.43 19.3701H88.3711V120.909H102.43V19.3701Z" fill="#0095FF"/>
<path d="M154.248 27.2147L142.593 19.3701L109.161 68.8262L120.817 76.6707L154.248 27.2147Z" fill="#0095FF"/>
<path d="M109.124 68.8018V82.1621H166.029V68.8018H109.124Z" fill="#0095FF"/>
<path d="M156.657 19.3701H142.598V120.241H156.657V19.3701Z" fill="#0095FF"/>
<path d="M186.784 20.0391H172.725V120.91H186.784V20.0391Z" fill="#0095FF"/>
<path d="M202.753 64.5733L190.012 70.502L214.108 122.064L226.849 116.135L202.753 64.5733Z" fill="#0095FF"/>
</g>
</svg>
