<svg width="20" height="16" viewBox="0 0 27 22" fill="none" xmlns="http://www.w3.org/2000/svg"> <path d="M16.6241 0.0462869C16.9448 0.135074 17.2166 0.34559 17.3797 0.631548C17.5427 0.917506 17.5837 1.2555 17.4937 1.5712L11.9267 21.097C11.8821 21.2534 11.8067 21.3996 11.7047 21.5274C11.6027 21.6551 11.4762 21.7618 11.3323 21.8414C11.1884 21.9209 11.03 21.9719 10.8661 21.9912C10.7023 22.0105 10.5361 21.9979 10.3772 21.9541C10.2183 21.9102 10.0697 21.836 9.93993 21.7356C9.81015 21.6353 9.70174 21.5107 9.62087 21.3691C9.54 21.2275 9.48827 21.0716 9.46862 20.9104C9.44897 20.7491 9.46179 20.5856 9.50634 20.4292L15.0733 0.903355C15.1179 0.746804 15.1933 0.60043 15.2954 0.472605C15.3974 0.34478 15.5241 0.238012 15.6681 0.158409C15.8122 0.0788061 15.9707 0.0279302 16.1348 0.00869116C16.2988 -0.0105479 16.465 0.00222754 16.6241 0.0462869ZM7.47684 4.87827C7.71243 5.11019 7.84477 5.42471 7.84477 5.75265C7.84477 6.08059 7.71243 6.39511 7.47684 6.62703L3.03456 11.0002L7.47684 15.3721C7.5936 15.4869 7.68623 15.6233 7.74945 15.7733C7.81267 15.9234 7.84524 16.0842 7.8453 16.2467C7.84536 16.4091 7.8129 16.57 7.74979 16.7201C7.68668 16.8702 7.59414 17.0066 7.47747 17.1215C7.3608 17.2364 7.22227 17.3275 7.0698 17.3898C6.91732 17.452 6.75389 17.484 6.58883 17.4841C6.42377 17.4841 6.26031 17.4522 6.1078 17.3901C5.95528 17.328 5.81669 17.2369 5.69993 17.1221L0.367932 11.8746C0.132345 11.6426 0 11.3281 0 11.0002C0 10.6722 0.132345 10.3577 0.367932 10.1258L5.69993 4.87827C5.93559 4.64641 6.25517 4.51617 6.58839 4.51617C6.92161 4.51617 7.24118 4.64641 7.47684 4.87827ZM19.5232 6.62703C19.4031 6.51295 19.3074 6.37648 19.2415 6.22559C19.1757 6.0747 19.141 5.91242 19.1396 5.7482C19.1381 5.58399 19.1699 5.42113 19.2331 5.26914C19.2963 5.11715 19.3896 4.97906 19.5076 4.86294C19.6256 4.74682 19.7659 4.65498 19.9203 4.5928C20.0748 4.53062 20.2402 4.49932 20.4071 4.50075C20.574 4.50218 20.7388 4.53629 20.8922 4.60111C21.0455 4.66593 21.1842 4.76015 21.3001 4.87827L26.6321 10.1258C26.8677 10.3577 27 10.6722 27 11.0002C27 11.3281 26.8677 11.6426 26.6321 11.8746L21.3001 17.1221C21.0643 17.354 20.7445 17.4842 20.4112 17.4841C20.0778 17.484 19.7582 17.3535 19.5225 17.1215C19.2869 16.8894 19.1546 16.5747 19.1547 16.2467C19.1548 15.9186 19.2874 15.604 19.5232 15.3721L23.9654 11.0002L19.5232 6.62703Z" fill="currentColor"/> </svg>