<svg width="13" height="11" viewBox="0 0 13 11" fill="none" xmlns="http://www.w3.org/2000/svg">
<path d="M1.3 10.5C0.9425 10.5 0.636458 10.3776 0.381875 10.1328C0.127292 9.88802 0 9.59375 0 9.25V1.75C0 1.40625 0.127292 1.11198 0.381875 0.867188C0.636458 0.622396 0.9425 0.5 1.3 0.5H11.7C12.0575 0.5 12.3635 0.622396 12.6181 0.867188C12.8727 1.11198 13 1.40625 13 1.75V9.25C13 9.59375 12.8727 9.88802 12.6181 10.1328C12.3635 10.3776 12.0575 10.5 11.7 10.5H1.3ZM6.5 6.125L1.3 3V9.25H11.7V3L6.5 6.125ZM6.5 4.875L11.7 1.75H1.3L6.5 4.875ZM1.3 3V1.75V9.25V3Z" fill="currentColor"/>
</svg>
